<?xml version="1.0" encoding="UTF-8"?>
<!DOCTYPE svg PUBLIC "-//W3C//DTD SVG 1.1//EN" "http://www.w3.org/Graphics/SVG/1.1/DTD/svg11.dtd">
<svg xmlns="http://www.w3.org/2000/svg" version="1.1" width="2048px" height="2048px" style="shape-rendering:geometricPrecision; text-rendering:geometricPrecision; image-rendering:optimizeQuality; fill-rule:evenodd; clip-rule:evenodd" xmlns:xlink="http://www.w3.org/1999/xlink">
<g><path style="opacity:1" fill="#7399c6" d="M -0.5,-0.5 C 682.167,-0.5 1364.83,-0.5 2047.5,-0.5C 2047.5,682.167 2047.5,1364.83 2047.5,2047.5C 1364.83,2047.5 682.167,2047.5 -0.5,2047.5C -0.5,1364.83 -0.5,682.167 -0.5,-0.5 Z"/></g>
<g><path style="opacity:1" fill="#fefefe" d="M 372.5,309.5 C 372.5,403.5 372.5,497.5 372.5,591.5C 367.833,591.5 363.167,591.5 358.5,591.5C 353.419,572.438 346.253,554.104 337,536.5C 318.522,506.432 291.689,494.266 256.5,500C 231.406,505.581 218.073,521.081 216.5,546.5C 215.604,564.203 221.937,578.703 235.5,590C 239.833,593 244.167,596 248.5,599C 277.167,614 305.833,629 334.5,644C 387.894,675.851 402.728,720.684 379,778.5C 364.949,802.786 344.782,819.953 318.5,830C 302.111,836.478 285.111,840.144 267.5,841C 227.168,841.5 186.835,841.667 146.5,841.5C 146.5,795.833 146.5,750.167 146.5,704.5C 151.5,704.5 156.5,704.5 161.5,704.5C 166.14,738.274 178.307,768.941 198,796.5C 225.701,826.812 258.201,833.312 295.5,816C 307.59,807.224 314.756,795.39 317,780.5C 320.575,755.888 313.075,735.388 294.5,719C 288.183,713.841 281.516,709.174 274.5,705C 244.526,690.016 215.193,674.016 186.5,657C 149.689,631.569 138.189,597.402 152,554.5C 164.281,530.555 182.781,513.055 207.5,502C 215.741,498.588 224.074,495.588 232.5,493C 184.603,488.319 150.77,464.153 131,420.5C 116.209,381.836 110.876,341.836 115,300.5C 118.659,259.871 133.325,223.871 159,192.5C 183.62,165.438 214.12,149.271 250.5,144C 289.832,143.5 329.165,143.333 368.5,143.5C 368.5,180.833 368.5,218.167 368.5,255.5C 363.5,255.5 358.5,255.5 353.5,255.5C 347.653,223.972 333.986,196.472 312.5,173C 292.536,155.666 270.536,152.333 246.5,163C 231.789,173.049 221.622,186.549 216,203.5C 208.89,230.369 204.89,257.703 204,285.5C 202.823,328.886 203.823,372.219 207,415.5C 207.979,431.079 211.313,446.079 217,460.5C 230.936,482.589 250.27,488.923 275,479.5C 283.047,475.785 288.714,469.785 292,461.5C 295.458,453.174 297.458,444.507 298,435.5C 298.667,408.167 298.667,380.833 298,353.5C 296.022,341.87 289.855,333.37 279.5,328C 271.25,325.988 262.917,324.488 254.5,323.5C 254.5,318.833 254.5,314.167 254.5,309.5C 293.833,309.5 333.167,309.5 372.5,309.5 Z"/></g>
<g><path style="opacity:1" fill="#c1d1e5" d="M 764.5,469.5 C 764.5,362.833 764.5,256.167 764.5,149.5C 740.167,149.5 715.833,149.5 691.5,149.5C 691.5,256.167 691.5,362.833 691.5,469.5C 690.501,362.668 690.167,255.668 690.5,148.5C 715.5,148.5 740.5,148.5 765.5,148.5C 765.833,255.668 765.499,362.668 764.5,469.5 Z"/></g>
<g><path style="opacity:1" fill="#fefefe" d="M 764.5,469.5 C 740.167,469.5 715.833,469.5 691.5,469.5C 691.5,362.833 691.5,256.167 691.5,149.5C 715.833,149.5 740.167,149.5 764.5,149.5C 764.5,256.167 764.5,362.833 764.5,469.5 Z"/></g>
<g><path style="opacity:1" fill="#d5e0ee" d="M 1027.5,149.5 C 1003.17,149.5 978.833,149.5 954.5,149.5C 954.833,174.176 954.5,198.842 953.5,223.5C 952.893,223.376 952.56,223.043 952.5,222.5C 953.498,198.006 953.831,173.339 953.5,148.5C 978.339,148.169 1003.01,148.502 1027.5,149.5 Z"/></g>
<g><path style="opacity:1" fill="#fefefe" d="M 1027.5,149.5 C 1027.5,256.167 1027.5,362.833 1027.5,469.5C 1004.5,469.5 981.5,469.5 958.5,469.5C 958.831,461.14 958.498,452.807 957.5,444.5C 956.893,444.624 956.56,444.957 956.5,445.5C 950.347,457.346 940.847,465.346 928,469.5C 893.021,479.335 864.354,470.001 842,441.5C 828.011,419.874 819.344,396.207 816,370.5C 810.351,336.036 813.351,302.369 825,269.5C 835.046,240.457 853.879,219.291 881.5,206C 897.945,199.494 914.612,198.827 931.5,204C 940.894,207.567 947.894,213.734 952.5,222.5C 952.56,223.043 952.893,223.376 953.5,223.5C 954.5,198.842 954.833,174.176 954.5,149.5C 978.833,149.5 1003.17,149.5 1027.5,149.5 Z"/></g>
<g><path style="opacity:1" fill="#fefefe" d="M 516.5,198.5 C 571.414,197.911 609.58,222.911 631,273.5C 646.748,317.726 646.081,361.726 629,405.5C 616.167,434.333 595.333,455.167 566.5,468C 535.768,480.189 506.434,477.523 478.5,460C 456.969,446.462 441.135,427.962 431,404.5C 410.842,353.724 413.176,304.058 438,255.5C 456.085,225.374 482.252,206.374 516.5,198.5 Z"/></g>
<g><path style="opacity:1" fill="#fefefe" d="M 1425.5,265.5 C 1425.5,333.167 1425.5,400.833 1425.5,468.5C 1401.83,468.5 1378.17,468.5 1354.5,468.5C 1354.67,396.499 1354.5,324.499 1354,252.5C 1353.33,243.79 1350.66,235.79 1346,228.5C 1333.95,218.885 1322.12,219.218 1310.5,229.5C 1303.97,236.23 1299.8,244.23 1298,253.5C 1297.5,325.499 1297.33,397.499 1297.5,469.5C 1273.17,469.5 1248.83,469.5 1224.5,469.5C 1224.67,393.833 1224.5,318.166 1224,242.5C 1219.31,223.375 1207.81,217.541 1189.5,225C 1177.56,232.042 1171.06,242.542 1170,256.5C 1169.5,327.166 1169.33,397.833 1169.5,468.5C 1145.83,468.5 1122.17,468.5 1098.5,468.5C 1098.5,380.5 1098.5,292.5 1098.5,204.5C 1120.17,204.5 1141.83,204.5 1163.5,204.5C 1163.33,213.839 1163.5,223.173 1164,232.5C 1178.8,209.512 1199.97,198.179 1227.5,198.5C 1247.22,197.459 1264.06,203.792 1278,217.5C 1282.26,223.017 1285.76,229.017 1288.5,235.5C 1308.88,203.822 1337.55,192.322 1374.5,201C 1401.67,207.782 1418.17,224.949 1424,252.5C 1425.08,256.77 1425.58,261.103 1425.5,265.5 Z"/></g>
<g><path style="opacity:1" fill="#fefefe" d="M 1678.5,468.5 C 1655.5,468.5 1632.5,468.5 1609.5,468.5C 1609.83,458.81 1609.5,449.144 1608.5,439.5C 1607.7,439.957 1607.37,440.624 1607.5,441.5C 1601.81,454.711 1592.14,463.877 1578.5,469C 1551.21,479.653 1525.21,477.32 1500.5,462C 1482.74,446.301 1474.41,426.467 1475.5,402.5C 1474.56,371.201 1487.89,348.367 1515.5,334C 1537.49,323.839 1559.82,314.505 1582.5,306C 1589.93,303.205 1596.43,299.038 1602,293.5C 1602.97,291.608 1603.64,289.608 1604,287.5C 1604.67,268.833 1604.67,250.167 1604,231.5C 1600.02,218.323 1591.02,211.99 1577,212.5C 1566.93,212.299 1558.26,215.633 1551,222.5C 1549.48,226.375 1549.15,230.375 1550,234.5C 1554.38,239.211 1558.38,244.211 1562,249.5C 1567.76,270.146 1560.59,284.313 1540.5,292C 1531.88,293.464 1523.21,293.798 1514.5,293C 1494.37,287.615 1485.54,274.448 1488,253.5C 1492.93,236.567 1503.09,223.734 1518.5,215C 1548.81,199.146 1580.81,194.479 1614.5,201C 1634.68,204.173 1651.85,213.006 1666,227.5C 1672.55,236.801 1676.55,247.134 1678,258.5C 1678.5,328.499 1678.67,398.499 1678.5,468.5 Z"/></g>
<g><path style="opacity:1" fill="#fefefe" d="M 1949.5,468.5 C 1925.17,468.5 1900.83,468.5 1876.5,468.5C 1876.83,397.998 1876.5,327.665 1875.5,257.5C 1876.29,247.635 1874.46,238.301 1870,229.5C 1863.63,222.571 1855.8,220.071 1846.5,222C 1832.19,226.316 1823.35,235.816 1820,250.5C 1818.78,256.101 1818.28,261.768 1818.5,267.5C 1817.5,334.331 1817.17,401.331 1817.5,468.5C 1793.83,468.5 1770.17,468.5 1746.5,468.5C 1746.5,380.5 1746.5,292.5 1746.5,204.5C 1768.83,204.5 1791.17,204.5 1813.5,204.5C 1813.17,214.19 1813.5,223.856 1814.5,233.5C 1815.11,233.376 1815.44,233.043 1815.5,232.5C 1824.31,216.557 1837.64,206.057 1855.5,201C 1880.31,194.968 1903.31,198.968 1924.5,213C 1939.51,226.857 1947.68,244.024 1949,264.5C 1949.5,332.499 1949.67,400.499 1949.5,468.5 Z"/></g>
<g><path style="opacity:1" fill="#d7e2ef" d="M 1813.5,204.5 C 1814.17,213.833 1814.83,223.167 1815.5,232.5C 1815.44,233.043 1815.11,233.376 1814.5,233.5C 1813.5,223.856 1813.17,214.19 1813.5,204.5 Z"/></g>
<g><path style="opacity:1" fill="#7399c6" d="M 521.5,212.5 C 541.334,209.662 554.5,217.662 561,236.5C 562.98,243.714 564.313,251.047 565,258.5C 565.667,306.5 565.667,354.5 565,402.5C 563.848,411.143 562.848,419.809 562,428.5C 558.792,454.064 544.625,464.564 519.5,460C 510.935,456.094 505.102,449.594 502,440.5C 500.176,434.205 498.51,427.872 497,421.5C 493.693,375.892 492.693,330.225 494,284.5C 494.806,266.854 497.473,249.521 502,232.5C 505.378,222.624 511.878,215.957 521.5,212.5 Z"/></g>
<g><path style="opacity:1" fill="#7399c6" d="M 914.5,216.5 C 929.226,215.113 939.726,221.113 946,234.5C 951.694,250.327 954.694,266.66 955,283.5C 955.667,317.833 955.667,352.167 955,386.5C 954.658,404.879 950.991,422.545 944,439.5C 934.855,454.104 922.355,458.271 906.5,452C 901.826,447.654 898.326,442.487 896,436.5C 890.947,423.291 888.614,409.624 889,395.5C 888.333,361.167 888.333,326.833 889,292.5C 889.066,271.478 892.733,251.145 900,231.5C 903.021,224.647 907.855,219.647 914.5,216.5 Z"/></g>
<g><path style="opacity:1" fill="#e8eff6" d="M 1875.5,257.5 C 1876.5,327.665 1876.83,397.998 1876.5,468.5C 1900.83,468.5 1925.17,468.5 1949.5,468.5C 1925.01,469.498 1900.34,469.831 1875.5,469.5C 1875.5,398.833 1875.5,328.167 1875.5,257.5 Z"/></g>
<g><path style="opacity:1" fill="#f0f4f9" d="M 1818.5,267.5 C 1818.5,334.833 1818.5,402.167 1818.5,469.5C 1794.33,469.831 1770.33,469.498 1746.5,468.5C 1770.17,468.5 1793.83,468.5 1817.5,468.5C 1817.17,401.331 1817.5,334.331 1818.5,267.5 Z"/></g>
<g><path style="opacity:1" fill="#e5ecf4" d="M 1425.5,265.5 C 1426.5,333.331 1426.83,401.331 1426.5,469.5C 1402.33,469.831 1378.33,469.498 1354.5,468.5C 1378.17,468.5 1401.83,468.5 1425.5,468.5C 1425.5,400.833 1425.5,333.167 1425.5,265.5 Z"/></g>
<g><path style="opacity:1" fill="#b1c6df" d="M 372.5,309.5 C 373.499,403.665 373.833,497.999 373.5,592.5C 368.305,592.821 363.305,592.487 358.5,591.5C 363.167,591.5 367.833,591.5 372.5,591.5C 372.5,497.5 372.5,403.5 372.5,309.5 Z"/></g>
<g><path style="opacity:1" fill="#7399c6" d="M 1602.5,312.5 C 1603.5,342.329 1603.83,372.329 1603.5,402.5C 1603.21,416.875 1599.37,430.208 1592,442.5C 1585.31,451.389 1576.47,454.555 1565.5,452C 1558.01,448.503 1553.51,442.67 1552,434.5C 1548.06,409.362 1548.73,384.362 1554,359.5C 1557.81,345.7 1565.64,334.867 1577.5,327C 1585.86,322.155 1594.19,317.322 1602.5,312.5 Z"/></g>
<g><path style="opacity:1" fill="#88a8cf" d="M 1602.5,312.5 C 1602.56,311.957 1602.89,311.624 1603.5,311.5C 1604.83,341.997 1604.83,372.331 1603.5,402.5C 1603.83,372.329 1603.5,342.329 1602.5,312.5 Z"/></g>
<g><path style="opacity:1" fill="#c2d3e6" d="M 956.5,445.5 C 956.56,444.957 956.893,444.624 957.5,444.5C 958.498,452.807 958.831,461.14 958.5,469.5C 957.833,461.5 957.167,453.5 956.5,445.5 Z"/></g>
<g><path style="opacity:1" fill="#e1e9f3" d="M 1098.5,204.5 C 1098.5,292.5 1098.5,380.5 1098.5,468.5C 1122.17,468.5 1145.83,468.5 1169.5,468.5C 1145.67,469.498 1121.67,469.831 1097.5,469.5C 1097.17,380.998 1097.5,292.665 1098.5,204.5 Z"/></g>
<g><path style="opacity:1" fill="#ecf1f7" d="M 1678.5,468.5 C 1655.34,469.498 1632.01,469.831 1608.5,469.5C 1608.83,459.985 1608.49,450.652 1607.5,441.5C 1607.37,440.624 1607.7,439.957 1608.5,439.5C 1609.5,449.144 1609.83,458.81 1609.5,468.5C 1632.5,468.5 1655.5,468.5 1678.5,468.5 Z"/></g>
<g><path style="opacity:1" fill="#fefefe" d="M 980.5,594.5 C 996.467,577.832 1016.13,569.499 1039.5,569.5C 1080.86,571.021 1104.36,592.355 1110,633.5C 1110.5,702.833 1110.67,772.166 1110.5,841.5C 1085.83,841.5 1061.17,841.5 1036.5,841.5C 1036.67,767.833 1036.5,694.166 1036,620.5C 1034.65,597.08 1022.82,588.914 1000.5,596C 990.299,601.55 983.799,610.05 981,621.5C 979.844,625.418 979.344,629.418 979.5,633.5C 978.501,702.331 978.167,771.331 978.5,840.5C 954.833,840.5 931.167,840.5 907.5,840.5C 907.667,817.164 907.5,793.831 907,770.5C 905.961,771.244 905.461,772.244 905.5,773.5C 887.136,809.21 858.469,832.377 819.5,843C 783.496,848.747 750.496,841.413 720.5,821C 699.82,803.824 686.653,781.991 681,755.5C 677.323,740.399 675.823,725.065 676.5,709.5C 674.664,662.798 691.331,624.298 726.5,594C 756.271,571.643 789.271,564.976 825.5,574C 847.209,580.375 860.709,594.542 866,616.5C 868.036,628.579 866.036,639.912 860,650.5C 853.138,658.854 844.304,664.021 833.5,666C 818.637,668.57 805.804,664.737 795,654.5C 787.433,642.844 786.766,630.844 793,618.5C 798.333,611.833 803.667,605.167 809,598.5C 810.603,590.755 807.436,586.255 799.5,585C 784.066,582.3 772.566,587.8 765,601.5C 760.408,612.455 757.075,623.788 755,635.5C 749.242,687.05 750.575,738.384 759,789.5C 767.018,821.939 787.518,834.772 820.5,828C 842.783,821.944 860.95,809.778 875,791.5C 894.066,766.812 904.566,738.812 906.5,707.5C 907.499,645.002 907.832,582.336 907.5,519.5C 931.167,519.5 954.833,519.5 978.5,519.5C 978.167,544.842 978.5,570.175 979.5,595.5C 980.107,595.376 980.44,595.043 980.5,594.5 Z"/></g>
<g><path style="opacity:1" fill="#c3d3e6" d="M 980.5,594.5 C 980.44,595.043 980.107,595.376 979.5,595.5C 978.5,570.175 978.167,544.842 978.5,519.5C 954.833,519.5 931.167,519.5 907.5,519.5C 907.832,582.336 907.499,645.002 906.5,707.5C 906.5,644.5 906.5,581.5 906.5,518.5C 930.833,518.5 955.167,518.5 979.5,518.5C 979.169,544.005 979.502,569.339 980.5,594.5 Z"/></g>
<g><path style="opacity:1" fill="#fefefe" d="M 626.5,629.5 C 626.5,699.833 626.5,770.167 626.5,840.5C 604.167,840.5 581.833,840.5 559.5,840.5C 559.666,831.161 559.5,821.827 559,812.5C 549.631,829.123 535.464,839.289 516.5,843C 492.54,848.627 470.206,844.96 449.5,832C 436.911,820.993 429.411,807.16 427,790.5C 420.297,753.092 433.13,724.926 465.5,706C 490.334,694.611 515.334,683.611 540.5,673C 547.794,670.042 552.627,664.876 555,657.5C 555.667,639.167 555.667,620.833 555,602.5C 551.076,588.518 541.743,582.184 527,583.5C 516.761,582.91 508.095,586.244 501,593.5C 500.333,597.5 500.333,601.5 501,605.5C 503.243,609.748 506.243,613.414 510,616.5C 520.306,641.719 512.14,657.552 485.5,664C 468.659,667.485 454.826,662.652 444,649.5C 435.459,633.087 437.126,617.754 449,603.5C 468.083,584.236 491.25,573.402 518.5,571C 536.246,569.908 553.912,570.575 571.5,573C 594.463,576.376 611.296,588.209 622,608.5C 624.335,615.344 625.835,622.344 626.5,629.5 Z"/></g>
<g><path style="opacity:1" fill="#fefefe" d="M 1261.5,840.5 C 1230.5,840.5 1199.5,840.5 1168.5,840.5C 1168.5,807.833 1168.5,775.167 1168.5,742.5C 1173.43,742.197 1178.26,742.531 1183,743.5C 1186.19,760.069 1191.19,776.069 1198,791.5C 1210.43,817.138 1230.93,828.971 1259.5,827C 1286.26,821.23 1297.76,804.73 1294,777.5C 1292.34,770.51 1289.34,764.176 1285,758.5C 1279.1,751.926 1272.6,746.092 1265.5,741C 1242.5,727.836 1219.83,714.169 1197.5,700C 1167.22,679.499 1158.39,651.999 1171,617.5C 1180.11,597.727 1194.94,584.227 1215.5,577C 1223.64,574.214 1231.98,572.214 1240.5,571C 1271.5,570.5 1302.5,570.333 1333.5,570.5C 1333.5,594.167 1333.5,617.833 1333.5,641.5C 1328.46,641.827 1323.46,641.494 1318.5,640.5C 1314.3,625.439 1307.47,611.772 1298,599.5C 1282.36,585.381 1264.19,580.881 1243.5,586C 1218.72,598.003 1213.56,615.836 1228,639.5C 1233.95,646.458 1240.78,652.291 1248.5,657C 1267.34,667.255 1286.34,677.255 1305.5,687C 1341.75,705.663 1355.91,735.163 1348,775.5C 1340.35,802.488 1323.51,821.321 1297.5,832C 1285.93,836.726 1273.93,839.56 1261.5,840.5 Z"/></g>
<g><path style="opacity:1" fill="#c7d6e8" d="M 979.5,633.5 C 979.5,702.833 979.5,772.167 979.5,841.5C 955.5,841.5 931.5,841.5 907.5,841.5C 907.5,841.167 907.5,840.833 907.5,840.5C 931.167,840.5 954.833,840.5 978.5,840.5C 978.167,771.331 978.501,702.331 979.5,633.5 Z"/></g>
<g><path style="opacity:1" fill="#dbe4f0" d="M 626.5,629.5 C 627.499,699.998 627.833,770.665 627.5,841.5C 604.661,841.831 581.994,841.497 559.5,840.5C 581.833,840.5 604.167,840.5 626.5,840.5C 626.5,770.167 626.5,699.833 626.5,629.5 Z"/></g>
<g><path style="opacity:1" fill="#9eb8d8" d="M 553.5,682.5 C 553.56,681.957 553.893,681.624 554.5,681.5C 555.83,712.331 555.83,742.997 554.5,773.5C 554.831,742.995 554.498,712.662 553.5,682.5 Z"/></g>
<g><path style="opacity:1" fill="#7399c6" d="M 553.5,682.5 C 554.498,712.662 554.831,742.995 554.5,773.5C 553.852,787.13 550.018,799.797 543,811.5C 535.278,820.778 525.445,824.612 513.5,823C 507.683,819.849 504.183,815.016 503,808.5C 498.729,780.605 499.729,752.938 506,725.5C 509.291,716.415 514.458,708.581 521.5,702C 531.722,694.724 542.389,688.224 553.5,682.5 Z"/></g>
<g><path style="opacity:1" fill="#b6c9e0" d="M 907.5,840.5 C 907.5,840.833 907.5,841.167 907.5,841.5C 906.833,818.833 906.167,796.167 905.5,773.5C 905.461,772.244 905.961,771.244 907,770.5C 907.5,793.831 907.667,817.164 907.5,840.5 Z"/></g>
<g><path style="opacity:1" fill="#d4dfed" d="M 1168.5,742.5 C 1168.5,775.167 1168.5,807.833 1168.5,840.5C 1199.5,840.5 1230.5,840.5 1261.5,840.5C 1230.34,841.498 1199,841.832 1167.5,841.5C 1167.17,808.329 1167.5,775.329 1168.5,742.5 Z"/></g>
</svg>
