<?xml version="1.0" encoding="UTF-8"?>
<!DOCTYPE svg PUBLIC "-//W3C//DTD SVG 1.1//EN" "http://www.w3.org/Graphics/SVG/1.1/DTD/svg11.dtd">
<svg xmlns="http://www.w3.org/2000/svg" version="1.1" width="225px" height="225px" style="shape-rendering:geometricPrecision; text-rendering:geometricPrecision; image-rendering:optimizeQuality; fill-rule:evenodd; clip-rule:evenodd" xmlns:xlink="http://www.w3.org/1999/xlink">
<g><path style="opacity:1" fill="#0000cd" d="M -0.5,-0.5 C 74.5,-0.5 149.5,-0.5 224.5,-0.5C 224.5,74.5 224.5,149.5 224.5,224.5C 149.5,224.5 74.5,224.5 -0.5,224.5C -0.5,149.5 -0.5,74.5 -0.5,-0.5 Z"/></g>
<g><path style="opacity:1" fill="#f5f5f5" d="M 62.5,44.5 C 95.5,44.5 128.5,44.5 161.5,44.5C 161.5,52.5 161.5,60.5 161.5,68.5C 148.989,68.1714 136.655,68.5048 124.5,69.5C 124.5,97.8333 124.5,126.167 124.5,154.5C 136.655,155.495 148.989,155.829 161.5,155.5C 161.5,163.5 161.5,171.5 161.5,179.5C 128.5,179.5 95.5,179.5 62.5,179.5C 62.5,171.5 62.5,163.5 62.5,155.5C 75.0113,155.829 87.3446,155.495 99.5,154.5C 99.5,126.167 99.5,97.8333 99.5,69.5C 87.3446,68.5048 75.0113,68.1714 62.5,68.5C 62.5,60.5 62.5,52.5 62.5,44.5 Z"/></g>
<g><path style="opacity:1" fill="#9998e1" d="M 62.5,44.5 C 62.5,52.5 62.5,60.5 62.5,68.5C 75.0113,68.1714 87.3446,68.5048 99.5,69.5C 86.8333,69.5 74.1667,69.5 61.5,69.5C 61.1739,60.9832 61.5073,52.6499 62.5,44.5 Z"/></g>
<g><path style="opacity:1" fill="#9998e1" d="M 161.5,44.5 C 162.493,52.6499 162.826,60.9832 162.5,69.5C 149.833,69.5 137.167,69.5 124.5,69.5C 136.655,68.5048 148.989,68.1714 161.5,68.5C 161.5,60.5 161.5,52.5 161.5,44.5 Z"/></g>
<g><path style="opacity:1" fill="#807ed7" d="M 99.5,154.5 C 87.3446,155.495 75.0113,155.829 62.5,155.5C 62.5,163.5 62.5,171.5 62.5,179.5C 61.5073,171.35 61.1739,163.017 61.5,154.5C 74.1667,154.5 86.8333,154.5 99.5,154.5 Z"/></g>
<g><path style="opacity:1" fill="#807ed7" d="M 124.5,154.5 C 137.167,154.5 149.833,154.5 162.5,154.5C 162.826,163.017 162.493,171.35 161.5,179.5C 161.5,171.5 161.5,163.5 161.5,155.5C 148.989,155.829 136.655,155.495 124.5,154.5 Z"/></g>
</svg>
