<?xml version="1.0" encoding="UTF-8"?>
<!DOCTYPE svg PUBLIC "-//W3C//DTD SVG 1.1//EN" "http://www.w3.org/Graphics/SVG/1.1/DTD/svg11.dtd">
<svg xmlns="http://www.w3.org/2000/svg" version="1.1" width="225px" height="225px" style="shape-rendering:geometricPrecision; text-rendering:geometricPrecision; image-rendering:optimizeQuality; fill-rule:evenodd; clip-rule:evenodd" xmlns:xlink="http://www.w3.org/1999/xlink">
<g><path style="opacity:1" fill="#552682" d="M -0.5,-0.5 C 74.1667,-0.5 148.833,-0.5 223.5,-0.5C 223.5,36.8333 223.5,74.1667 223.5,111.5C 214.5,111.5 205.5,111.5 196.5,111.5C 196.5,108.5 196.5,105.5 196.5,102.5C 190.5,102.5 184.5,102.5 178.5,102.5C 178.5,91.5 178.5,80.5 178.5,69.5C 173.5,69.5 168.5,69.5 163.5,69.5C 163.5,83.5 163.5,97.5 163.5,111.5C 159.818,111.665 156.152,111.499 152.5,111C 154.663,109.002 156.33,106.668 157.5,104C 154.192,101.341 150.525,99.1747 146.5,97.5C 142.49,105.048 136.99,106.381 130,101.5C 126.319,94.3065 126.819,87.4732 131.5,81C 138.366,77.811 143.366,79.6443 146.5,86.5C 150.525,84.8253 154.192,82.6586 157.5,80C 149.041,68.2544 138.041,65.2544 124.5,71C 112.451,80.1588 109.618,91.6588 116,105.5C 117.049,107.618 118.549,109.284 120.5,110.5C 114.5,111.833 108.5,111.833 102.5,110.5C 104.474,108.572 105.974,106.239 107,103.5C 107.5,92.1716 107.667,80.8382 107.5,69.5C 102.833,69.5 98.1667,69.5 93.5,69.5C 93.6665,79.8387 93.4998,90.172 93,100.5C 90.9473,104.292 87.7806,105.458 83.5,104C 82.1772,103.184 81.5106,102.017 81.5,100.5C 81.5,90.1667 81.5,79.8333 81.5,69.5C 76.3054,69.1795 71.3054,69.5128 66.5,70.5C 66.3335,81.1719 66.5002,91.8385 67,102.5C 67.3194,105.973 68.8194,108.806 71.5,111C 47.5023,111.5 23.5023,111.667 -0.5,111.5C -0.5,74.1667 -0.5,36.8333 -0.5,-0.5 Z"/></g>
<g><path style="opacity:1" fill="#bde2ed" d="M 223.5,-0.5 C 223.833,-0.5 224.167,-0.5 224.5,-0.5C 224.5,74.5 224.5,149.5 224.5,224.5C 149.5,224.5 74.5,224.5 -0.5,224.5C -0.5,186.833 -0.5,149.167 -0.5,111.5C 23.5023,111.667 47.5023,111.5 71.5,111C 68.8194,108.806 67.3194,105.973 67,102.5C 66.5002,91.8385 66.3335,81.1719 66.5,70.5C 71.1667,70.5 75.8333,70.5 80.5,70.5C 80.1726,80.6806 80.506,90.6806 81.5,100.5C 81.5106,102.017 82.1772,103.184 83.5,104C 87.7806,105.458 90.9473,104.292 93,100.5C 93.4998,90.172 93.6665,79.8387 93.5,69.5C 98.1667,69.5 102.833,69.5 107.5,69.5C 107.667,80.8382 107.5,92.1716 107,103.5C 105.974,106.239 104.474,108.572 102.5,110.5C 101.711,110.783 101.044,111.283 100.5,112C 107.524,112.831 114.524,112.664 121.5,111.5C 121.376,110.893 121.043,110.56 120.5,110.5C 118.549,109.284 117.049,107.618 116,105.5C 109.618,91.6588 112.451,80.1588 124.5,71C 138.041,65.2544 149.041,68.2544 157.5,80C 154.192,82.6586 150.525,84.8253 146.5,86.5C 143.366,79.6443 138.366,77.811 131.5,81C 126.819,87.4732 126.319,94.3065 130,101.5C 136.99,106.381 142.49,105.048 146.5,97.5C 150.525,99.1747 154.192,101.341 157.5,104C 156.33,106.668 154.663,109.002 152.5,111C 156.152,111.499 159.818,111.665 163.5,111.5C 164.496,98.0102 164.829,84.3435 164.5,70.5C 168.833,70.5 173.167,70.5 177.5,70.5C 177.172,81.3464 177.506,92.0131 178.5,102.5C 184.5,102.5 190.5,102.5 196.5,102.5C 196.5,105.5 196.5,108.5 196.5,111.5C 205.5,111.5 214.5,111.5 223.5,111.5C 223.5,74.1667 223.5,36.8333 223.5,-0.5 Z"/></g>
<g><path style="opacity:1" fill="#7e7aab" d="M 66.5,70.5 C 71.3054,69.5128 76.3054,69.1795 81.5,69.5C 81.5,79.8333 81.5,90.1667 81.5,100.5C 80.506,90.6806 80.1726,80.6806 80.5,70.5C 75.8333,70.5 71.1667,70.5 66.5,70.5 Z"/></g>
<g><path style="opacity:1" fill="#97a4c5" d="M 178.5,102.5 C 177.506,92.0131 177.172,81.3464 177.5,70.5C 173.167,70.5 168.833,70.5 164.5,70.5C 164.829,84.3435 164.496,98.0102 163.5,111.5C 163.5,97.5 163.5,83.5 163.5,69.5C 168.5,69.5 173.5,69.5 178.5,69.5C 178.5,80.5 178.5,91.5 178.5,102.5 Z"/></g>
<g><path style="opacity:1" fill="#ccbed9" d="M 58.5,87.5 C 53.3054,87.8205 48.3054,87.4872 43.5,86.5C 44.8217,84.1979 44.8217,81.8646 43.5,79.5C 44.6888,78.5713 46.0222,78.238 47.5,78.5C 47.3398,76.8008 47.5065,75.1341 48,73.5C 49.3848,72.4495 50.3848,71.1161 51,69.5C 52.7224,72.2791 53.8891,75.2791 54.5,78.5C 55.9778,78.238 57.3112,78.5713 58.5,79.5C 57.1764,82.1977 57.1764,84.8643 58.5,87.5 Z"/></g>
<g><path style="opacity:1" fill="#b3a5c4" d="M 43.5,86.5 C 48.3054,87.4872 53.3054,87.8205 58.5,87.5C 53.3197,88.8147 47.9864,88.8147 42.5,87.5C 42.6236,86.8933 42.9569,86.56 43.5,86.5 Z"/></g>
<g><path style="opacity:1" fill="#8e95bb" d="M 102.5,110.5 C 108.5,111.833 114.5,111.833 120.5,110.5C 121.043,110.56 121.376,110.893 121.5,111.5C 114.524,112.664 107.524,112.831 100.5,112C 101.044,111.283 101.711,110.783 102.5,110.5 Z"/></g>
</svg>
