<?xml version="1.0" standalone="no"?>
<!DOCTYPE svg PUBLIC "-//W3C//DTD SVG 20010904//EN"
 "http://www.w3.org/TR/2001/REC-SVG-20010904/DTD/svg10.dtd">
<svg version="1.0" xmlns="http://www.w3.org/2000/svg"
 width="1200.000000pt" height="1453.000000pt" viewBox="0 0 1200.000000 1453.000000"
 preserveAspectRatio="xMidYMid meet">

<g transform="translate(0.000000,1453.000000) scale(0.100000,-0.100000)">
<path d="M3774 12298 c-1763 -1765 -2247 -2255 -2349 -2378 -323 -388 -564
-758 -780 -1195 -135 -272 -219 -475 -315 -765 -280 -841 -369 -1697 -270
-2580 212 -1874 1301 -3543 2945 -4510 309 -181 768 -390 1105 -503 1547 -517
3211 -394 4635 342 537 278 981 601 1424 1036 295 290 509 538 719 834 574
807 936 1739 1062 2733 53 424 53 1042 0 1466 -135 1060 -538 2051 -1178 2895
-142 188 -294 366 -436 514 l-105 108 -535 -534 -534 -534 103 -111 c742 -795
1172 -1815 1213 -2878 30 -765 -113 -1464 -438 -2136 -218 -450 -474 -812
-835 -1181 -782 -799 -1770 -1267 -2875 -1361 -267 -23 -658 -12 -955 26 -629
80 -1291 325 -1831 679 -500 327 -953 774 -1293 1275 -434 640 -694 1375 -761
2150 -14 159 -14 579 0 735 72 838 375 1638 865 2290 177 235 301 363 1947
2010 l1698 1700 -2 1048 -3 1047 -2221 -2222z"/>
<path d="M8005 12109 c-182 -27 -369 -132 -486 -273 -58 -71 -132 -214 -155
-301 -55 -213 -11 -463 116 -643 148 -211 380 -332 640 -332 218 0 389 71 546
225 96 95 154 188 197 317 28 85 31 105 31 228 0 111 -3 149 -22 213 -87 303
-338 523 -646 566 -88 12 -135 12 -221 0z" fill="currentColor"/>
</g>
</svg>
